<svg width="25" height="20" viewBox="0 0 25 20" fill="none" xmlns="http://www.w3.org/2000/svg">
<path d="M0 6.81119C0 5.7546 0.854955 4.89805 1.90946 4.89805H2.80278V19.8652H1.90946C0.854955 19.8652 0 19.0088 0 17.9522V6.81119ZM23.0905 19.8651H22.2662V4.89793H23.0905C24.145 4.89793 25 5.75447 25 6.81106V17.9521C25 19.0086 24.145 19.8651 23.0905 19.8651ZM4.31094 4.89793H7.62534C7.62387 4.94643 7.62167 4.99482 7.62167 5.04382C7.62167 9.25163 12.5216 13.021 12.5216 13.021C12.5216 13.021 17.4216 9.25163 17.4216 5.04382C17.4216 4.99482 17.4193 4.94643 17.4178 4.89793H20.7576V19.8651H4.31057L4.31094 4.89793ZM12.5216 1.81473C10.7907 1.81473 9.38257 3.18275 9.30584 4.89793H7.62534C7.70257 2.25436 9.86429 0.134796 12.5216 0.134796C15.1789 0.134796 17.3406 2.25436 17.4178 4.89793H15.7373C15.6606 3.18275 14.2526 1.81473 12.5216 1.81473ZM15.7373 4.89793H9.30584C9.30375 4.94668 9.29848 4.99457 9.29848 5.04382C9.29848 6.82715 10.7416 8.2729 12.5216 8.2729C14.3016 8.2729 15.7447 6.82715 15.7447 5.04382C15.7447 4.99457 15.7395 4.94668 15.7373 4.89793Z" fill="#0270E6"/>
</svg>
